<svg xmlns="http://www.w3.org/2000/svg" xmlns:xlink="http://www.w3.org/1999/xlink" zoomAndPan="magnify" preserveAspectRatio="xMidYMid meet" version="1.0" viewBox="10.33 164.36 352.12 44.12"><defs><g/><clipPath id="75166d0f1a"><path d="M 162.535156 30.707031 L 215.726562 30.707031 L 215.726562 58.484375 L 162.535156 58.484375 Z M 162.535156 30.707031 " clip-rule="nonzero"/></clipPath><clipPath id="0851679dea"><path d="M 120.492188 16.421875 L 174 16.421875 L 174 45 L 120.492188 45 Z M 120.492188 16.421875 " clip-rule="nonzero"/></clipPath><clipPath id="440ce359bf"><path d="M 0.121094 5 L 294 5 L 294 67.921875 L 0.121094 67.921875 Z M 0.121094 5 " clip-rule="nonzero"/></clipPath><clipPath id="a878583637"><rect x="0" width="294" y="0" height="63"/></clipPath><clipPath id="2d9a5b0c63"><path d="M 286 0.480469 L 342 0.480469 L 342 60 L 286 60 Z M 286 0.480469 " clip-rule="nonzero"/></clipPath><clipPath id="6770431b52"><path d="M 35 14 L 55.878906 14 L 55.878906 43 L 35 43 Z M 35 14 " clip-rule="nonzero"/></clipPath><clipPath id="aeae5008f3"><rect x="0" width="56" y="0" height="60"/></clipPath><clipPath id="0af2baea78"><path d="M 51 0.0390625 L 56 0.0390625 L 56 10 L 51 10 Z M 51 0.0390625 " clip-rule="nonzero"/></clipPath><clipPath id="5be7f62055"><rect x="0" width="65" y="0" height="13"/></clipPath><clipPath id="922616bfc7"><rect x="0" width="357" y="0" height="68"/></clipPath></defs><g transform="matrix(1, 0, 0, 1, 9, 150)"><g clip-path="url(#922616bfc7)"><path fill="#bf1b2c" d="M 181.738281 27.625 C 181.738281 27.625 181.660156 27.691406 181.5 27.816406 C 181.34375 27.941406 181.109375 28.128906 180.804688 28.378906 C 180.199219 28.871094 179.3125 29.605469 178.199219 30.554688 C 177.089844 31.507812 175.757812 32.6875 174.253906 34.070312 C 174.066406 34.246094 173.875 34.421875 173.683594 34.597656 C 173.585938 34.6875 173.488281 34.78125 173.390625 34.871094 L 173.242188 35.007812 C 173.195312 35.054688 173.167969 35.078125 173.132812 35.113281 C 172.863281 35.382812 172.589844 35.648438 172.324219 35.917969 C 171.792969 36.460938 171.253906 37.003906 170.757812 37.558594 C 171.578125 38.203125 172.402344 38.816406 173.210938 39.410156 C 173.3125 39.484375 173.414062 39.554688 173.515625 39.628906 C 173.671875 39.75 173.832031 39.867188 173.988281 39.988281 C 174.324219 40.238281 174.660156 40.492188 175.003906 40.746094 C 175.683594 41.257812 176.382812 41.769531 177.097656 42.28125 C 178.523438 43.308594 180.007812 44.34375 181.546875 45.363281 C 183.085938 46.378906 184.679688 47.378906 186.324219 48.316406 C 187.425781 48.941406 188.523438 49.519531 189.613281 50.03125 C 190.703125 50.539062 191.785156 50.980469 192.839844 51.304688 C 193.363281 51.464844 193.882812 51.597656 194.382812 51.691406 C 194.503906 51.710938 194.628906 51.730469 194.753906 51.75 C 194.875 51.769531 194.992188 51.777344 195.113281 51.796875 C 195.234375 51.808594 195.347656 51.8125 195.464844 51.824219 C 195.585938 51.832031 195.726562 51.828125 195.851562 51.832031 C 196.902344 51.855469 197.929688 51.769531 198.921875 51.589844 C 200.902344 51.222656 202.714844 50.464844 204.25 49.484375 C 205.789062 48.503906 207.054688 47.304688 208.042969 46.070312 C 208.535156 45.449219 208.957031 44.820312 209.324219 44.199219 C 209.496094 43.886719 209.671875 43.582031 209.816406 43.273438 C 209.976562 42.972656 210.101562 42.667969 210.230469 42.371094 C 210.734375 41.191406 211.011719 40.105469 211.191406 39.207031 C 211.230469 38.980469 211.265625 38.765625 211.300781 38.5625 C 211.332031 38.363281 211.351562 38.171875 211.375 37.996094 C 211.386719 37.90625 211.398438 37.820312 211.40625 37.742188 C 211.417969 37.660156 211.417969 37.582031 211.425781 37.503906 C 211.433594 37.355469 211.441406 37.21875 211.449219 37.097656 C 211.46875 36.851562 211.480469 36.664062 211.488281 36.539062 C 211.492188 36.414062 211.488281 36.351562 211.488281 36.351562 C 211.488281 36.351562 211.503906 36.414062 211.523438 36.539062 C 211.535156 36.664062 211.554688 36.851562 211.582031 37.09375 C 211.59375 37.21875 211.605469 37.355469 211.625 37.507812 C 211.628906 37.582031 211.640625 37.660156 211.644531 37.746094 C 211.648438 37.828125 211.652344 37.914062 211.65625 38.003906 C 211.660156 38.1875 211.671875 38.382812 211.671875 38.589844 C 211.667969 38.800781 211.664062 39.023438 211.660156 39.257812 C 211.621094 40.203125 211.5 41.367188 211.140625 42.683594 C 211.046875 43.011719 210.953125 43.351562 210.828125 43.695312 C 210.71875 44.042969 210.570312 44.390625 210.425781 44.753906 C 210.113281 45.46875 209.742188 46.207031 209.28125 46.949219 C 208.355469 48.417969 207.09375 49.90625 205.445312 51.183594 C 203.804688 52.457031 201.777344 53.511719 199.472656 54.09375 C 198.324219 54.382812 197.113281 54.558594 195.867188 54.59375 C 195.710938 54.59375 195.558594 54.605469 195.394531 54.601562 C 195.234375 54.597656 195.070312 54.597656 194.910156 54.589844 C 194.75 54.578125 194.585938 54.566406 194.425781 54.550781 C 194.261719 54.535156 194.101562 54.515625 193.941406 54.496094 C 193.300781 54.40625 192.667969 54.269531 192.042969 54.101562 C 190.789062 53.765625 189.570312 53.300781 188.371094 52.765625 C 187.171875 52.230469 185.992188 51.621094 184.832031 50.960938 C 183.09375 49.972656 181.449219 48.90625 179.886719 47.816406 C 178.324219 46.722656 176.84375 45.605469 175.4375 44.484375 C 174.734375 43.921875 174.046875 43.363281 173.382812 42.804688 C 173.050781 42.523438 172.726562 42.242188 172.398438 41.96875 C 172.054688 41.667969 171.714844 41.375 171.378906 41.082031 C 169.976562 39.851562 168.722656 38.679688 167.597656 37.585938 C 169.753906 35.714844 171.75 34.183594 173.382812 33 C 175.050781 31.785156 176.539062 30.78125 177.78125 29.988281 C 179.023438 29.195312 180.011719 28.605469 180.691406 28.214844 C 181.03125 28.015625 181.292969 27.871094 181.472656 27.773438 C 181.648438 27.675781 181.738281 27.625 181.738281 27.625 " fill-opacity="1" fill-rule="nonzero"/><path fill="#bf1b2c" d="M 173.042969 36.773438 C 173.042969 36.773438 173 36.84375 172.914062 36.988281 C 172.832031 37.125 172.710938 37.320312 172.601562 37.542969 C 173.03125 37.789062 173.519531 38.058594 173.980469 38.289062 C 174.089844 38.339844 174.203125 38.394531 174.316406 38.453125 C 174.34375 38.464844 174.375 38.480469 174.402344 38.492188 L 174.441406 38.511719 L 174.460938 38.519531 L 174.472656 38.527344 L 174.503906 38.546875 C 174.671875 38.664062 174.839844 38.78125 175.011719 38.902344 C 175.699219 39.378906 176.425781 39.882812 177.191406 40.40625 C 178.722656 41.449219 180.402344 42.574219 182.191406 43.71875 C 183.980469 44.859375 185.882812 46.03125 187.84375 47.109375 C 189.222656 47.863281 190.570312 48.539062 191.835938 49.0625 C 193.097656 49.59375 194.292969 49.953125 195.210938 50.089844 C 195.328125 50.109375 195.429688 50.113281 195.542969 50.132812 C 195.683594 50.140625 195.824219 50.144531 195.964844 50.152344 C 196.035156 50.15625 196.105469 50.160156 196.175781 50.164062 C 196.242188 50.167969 196.3125 50.164062 196.382812 50.167969 C 196.519531 50.167969 196.65625 50.167969 196.792969 50.167969 C 196.929688 50.171875 197.066406 50.160156 197.199219 50.15625 C 197.335938 50.148438 197.46875 50.152344 197.601562 50.136719 C 197.863281 50.109375 198.128906 50.097656 198.382812 50.054688 C 199.40625 49.921875 200.351562 49.6875 201.199219 49.394531 C 202.046875 49.101562 202.792969 48.75 203.425781 48.398438 C 203.589844 48.316406 203.738281 48.21875 203.882812 48.132812 C 204.03125 48.046875 204.171875 47.964844 204.300781 47.875 C 204.433594 47.785156 204.558594 47.703125 204.679688 47.625 C 204.796875 47.539062 204.910156 47.460938 205.011719 47.382812 C 205.230469 47.234375 205.40625 47.085938 205.566406 46.960938 C 205.730469 46.839844 205.855469 46.722656 205.960938 46.632812 C 206.066406 46.542969 206.148438 46.476562 206.203125 46.429688 C 206.230469 46.40625 206.25 46.386719 206.265625 46.375 C 206.277344 46.363281 206.285156 46.355469 206.285156 46.355469 C 206.285156 46.355469 206.28125 46.363281 206.269531 46.378906 C 206.261719 46.394531 206.246094 46.417969 206.226562 46.449219 C 206.1875 46.507812 206.125 46.597656 206.046875 46.710938 C 205.96875 46.828125 205.871094 46.972656 205.742188 47.132812 C 205.617188 47.296875 205.476562 47.492188 205.296875 47.691406 C 205.210938 47.792969 205.117188 47.898438 205.019531 48.011719 C 204.914062 48.121094 204.808594 48.234375 204.691406 48.351562 C 204.582031 48.476562 204.457031 48.59375 204.324219 48.714844 C 204.195312 48.835938 204.0625 48.96875 203.910156 49.089844 C 203.328125 49.597656 202.613281 50.128906 201.75 50.613281 C 200.890625 51.09375 199.886719 51.53125 198.75 51.847656 C 198.464844 51.933594 198.171875 51.988281 197.875 52.058594 C 197.726562 52.097656 197.574219 52.113281 197.417969 52.140625 C 197.265625 52.167969 197.113281 52.199219 196.953125 52.21875 C 196.796875 52.234375 196.640625 52.253906 196.480469 52.269531 C 196.398438 52.277344 196.320312 52.289062 196.238281 52.296875 C 196.15625 52.300781 196.078125 52.304688 195.996094 52.3125 C 195.832031 52.320312 195.667969 52.328125 195.5 52.339844 C 195.347656 52.339844 195.199219 52.347656 195.039062 52.339844 C 193.777344 52.300781 192.355469 51.96875 190.925781 51.453125 C 189.488281 50.9375 188.023438 50.253906 186.566406 49.453125 C 184.492188 48.3125 182.570312 47.03125 180.808594 45.742188 C 179.050781 44.449219 177.457031 43.144531 176.035156 41.910156 C 175.324219 41.292969 174.660156 40.691406 174.039062 40.117188 C 173.882812 39.972656 173.730469 39.832031 173.582031 39.691406 L 173.554688 39.664062 L 173.535156 39.648438 L 173.503906 39.613281 L 173.441406 39.546875 C 173.398438 39.503906 173.359375 39.460938 173.320312 39.417969 C 173.160156 39.25 173.011719 39.089844 172.875 38.9375 C 172.335938 38.332031 171.992188 37.875 171.777344 37.546875 C 172.199219 37.257812 172.523438 37.066406 172.730469 36.945312 C 172.9375 36.824219 173.042969 36.773438 173.042969 36.773438 " fill-opacity="1" fill-rule="nonzero"/><g clip-path="url(#75166d0f1a)"><path fill="#bf1b2c" d="M 170.941406 30.769531 C 170.941406 30.769531 170.832031 30.875 170.621094 31.082031 C 170.515625 31.1875 170.378906 31.316406 170.222656 31.472656 C 169.960938 31.714844 169.664062 31.992188 169.324219 32.308594 C 168.648438 32.941406 167.839844 33.714844 166.9375 34.609375 C 166.042969 35.507812 165.046875 36.507812 163.960938 37.617188 C 164.90625 38.398438 165.925781 39.246094 167.015625 40.148438 C 168.085938 41.035156 169.246094 41.949219 170.453125 42.875 C 170.800781 43.140625 170.953125 43.246094 171.167969 43.40625 C 171.378906 43.558594 171.585938 43.710938 171.800781 43.867188 C 172.226562 44.171875 172.664062 44.484375 173.109375 44.804688 C 174.003906 45.441406 174.941406 46.097656 175.921875 46.769531 C 177.886719 48.105469 180.015625 49.496094 182.328125 50.863281 C 183.488281 51.542969 184.695312 52.21875 185.960938 52.863281 C 187.226562 53.507812 188.550781 54.117188 189.96875 54.652344 C 190.554688 54.871094 191.15625 55.070312 191.765625 55.25 C 192.378906 55.425781 193.003906 55.578125 193.652344 55.6875 C 193.976562 55.742188 194.300781 55.792969 194.636719 55.820312 L 194.890625 55.847656 L 195.144531 55.859375 L 195.402344 55.875 C 195.484375 55.875 195.558594 55.875 195.636719 55.875 C 196.261719 55.886719 196.882812 55.867188 197.5 55.820312 C 199.957031 55.632812 202.296875 54.957031 204.351562 53.957031 C 206.410156 52.953125 208.179688 51.621094 209.625 50.160156 C 209.804688 49.972656 209.988281 49.792969 210.15625 49.605469 C 210.324219 49.414062 210.488281 49.226562 210.652344 49.039062 C 210.96875 48.652344 211.277344 48.273438 211.554688 47.878906 C 212.117188 47.101562 212.613281 46.3125 213.019531 45.523438 C 213.234375 45.132812 213.410156 44.734375 213.59375 44.351562 C 213.675781 44.15625 213.753906 43.960938 213.835938 43.769531 C 213.875 43.675781 213.914062 43.578125 213.953125 43.484375 C 213.988281 43.390625 214.023438 43.292969 214.054688 43.199219 C 214.125 43.007812 214.191406 42.820312 214.257812 42.636719 C 214.320312 42.453125 214.375 42.265625 214.433594 42.085938 C 214.484375 41.902344 214.546875 41.722656 214.589844 41.542969 C 214.636719 41.367188 214.683594 41.1875 214.726562 41.015625 C 215.066406 39.625 215.214844 38.390625 215.269531 37.375 C 215.28125 37.121094 215.289062 36.882812 215.300781 36.65625 C 215.304688 36.542969 215.308594 36.433594 215.3125 36.328125 C 215.316406 36.222656 215.308594 36.121094 215.308594 36.023438 C 215.296875 35.628906 215.289062 35.296875 215.28125 35.023438 C 215.277344 34.890625 215.269531 34.769531 215.257812 34.667969 C 215.25 34.566406 215.242188 34.480469 215.234375 34.410156 C 215.222656 34.273438 215.214844 34.203125 215.214844 34.203125 C 215.214844 34.203125 215.230469 34.273438 215.265625 34.40625 C 215.28125 34.472656 215.300781 34.558594 215.324219 34.660156 C 215.351562 34.757812 215.371094 34.878906 215.394531 35.011719 C 215.4375 35.28125 215.488281 35.613281 215.550781 36.003906 C 215.566406 36.105469 215.585938 36.207031 215.597656 36.3125 C 215.605469 36.417969 215.617188 36.53125 215.625 36.644531 C 215.644531 36.875 215.664062 37.117188 215.683594 37.375 C 215.757812 38.410156 215.753906 39.691406 215.554688 41.171875 C 215.527344 41.355469 215.5 41.546875 215.472656 41.738281 C 215.445312 41.929688 215.402344 42.121094 215.367188 42.316406 C 215.328125 42.511719 215.289062 42.714844 215.242188 42.914062 C 215.195312 43.117188 215.144531 43.320312 215.089844 43.527344 C 215.066406 43.628906 215.039062 43.734375 215.011719 43.839844 C 214.980469 43.941406 214.949219 44.046875 214.917969 44.152344 C 214.851562 44.359375 214.785156 44.574219 214.71875 44.789062 C 214.5625 45.210938 214.417969 45.65625 214.226562 46.089844 C 213.867188 46.972656 213.414062 47.863281 212.875 48.757812 C 212.609375 49.207031 212.308594 49.644531 211.996094 50.089844 C 211.832031 50.308594 211.667969 50.527344 211.5 50.746094 C 211.332031 50.96875 211.148438 51.179688 210.96875 51.394531 C 209.503906 53.109375 207.636719 54.710938 205.390625 55.957031 C 203.152344 57.199219 200.527344 58.078125 197.734375 58.371094 C 197.035156 58.441406 196.332031 58.480469 195.617188 58.484375 C 195.527344 58.484375 195.445312 58.488281 195.34375 58.484375 L 195.03125 58.476562 L 194.714844 58.460938 L 194.410156 58.4375 C 194.207031 58.421875 194 58.40625 193.808594 58.378906 C 193.613281 58.351562 193.410156 58.332031 193.222656 58.296875 C 192.457031 58.175781 191.738281 58.007812 191.042969 57.8125 C 190.351562 57.617188 189.679688 57.398438 189.039062 57.15625 C 187.484375 56.570312 186.074219 55.902344 184.75 55.195312 C 183.429688 54.492188 182.195312 53.753906 181.023438 53.003906 C 178.679688 51.5 176.585938 49.953125 174.6875 48.453125 C 173.742188 47.703125 172.84375 46.964844 171.996094 46.242188 C 171.570312 45.882812 171.160156 45.527344 170.757812 45.175781 C 170.558594 45 170.363281 44.824219 170.167969 44.652344 C 170.070312 44.566406 169.976562 44.480469 169.878906 44.394531 L 169.808594 44.332031 L 169.695312 44.234375 C 169.605469 44.15625 169.519531 44.082031 169.433594 44.007812 C 168.042969 42.800781 166.773438 41.65625 165.65625 40.582031 C 164.5625 39.527344 163.539062 38.542969 162.59375 37.628906 C 164.011719 36.386719 165.242188 35.320312 166.324219 34.398438 C 167.414062 33.480469 168.351562 32.722656 169.117188 32.128906 C 169.496094 31.835938 169.828125 31.574219 170.121094 31.351562 C 170.300781 31.222656 170.453125 31.113281 170.574219 31.027344 C 170.816406 30.859375 170.941406 30.769531 170.941406 30.769531 " fill-opacity="1" fill-rule="nonzero"/></g><path fill="#bf1b2c" d="M 181.402344 31.886719 C 181.402344 31.886719 181.339844 31.9375 181.214844 32.035156 C 181.089844 32.128906 180.90625 32.273438 180.664062 32.46875 C 180.183594 32.851562 179.472656 33.417969 178.566406 34.167969 C 177.664062 34.917969 176.5625 35.851562 175.304688 36.960938 C 175.226562 37.03125 175.148438 37.101562 175.066406 37.171875 C 175.015625 37.21875 175.027344 37.210938 175.023438 37.214844 L 175.015625 37.226562 C 175.003906 37.246094 174.996094 37.261719 174.984375 37.277344 C 174.964844 37.308594 174.949219 37.339844 174.933594 37.371094 C 174.90625 37.429688 174.886719 37.480469 174.878906 37.523438 C 174.996094 37.578125 175.09375 37.613281 175.160156 37.628906 C 175.171875 37.628906 175.179688 37.632812 175.1875 37.632812 C 175.1875 37.632812 175.1875 37.632812 175.191406 37.632812 L 175.191406 37.636719 L 175.207031 37.648438 L 175.328125 37.742188 C 175.410156 37.808594 175.492188 37.871094 175.578125 37.933594 C 175.90625 38.191406 176.242188 38.449219 176.582031 38.710938 C 177.265625 39.234375 177.96875 39.761719 178.691406 40.296875 C 180.136719 41.359375 181.660156 42.441406 183.25 43.492188 C 184.835938 44.546875 186.488281 45.574219 188.175781 46.5 C 189.171875 47.046875 190.15625 47.542969 191.105469 47.960938 C 192.058594 48.382812 192.976562 48.722656 193.808594 48.953125 C 194.222656 49.070312 194.609375 49.148438 194.953125 49.199219 L 195.082031 49.222656 L 195.316406 49.246094 C 195.355469 49.25 195.390625 49.25 195.425781 49.253906 L 195.53125 49.261719 L 195.597656 49.261719 L 195.675781 49.265625 C 195.78125 49.265625 195.882812 49.265625 195.984375 49.265625 C 196.804688 49.265625 197.605469 49.183594 198.367188 49.027344 C 199.898438 48.722656 201.289062 48.125 202.476562 47.367188 C 203.070312 46.988281 203.613281 46.574219 204.101562 46.132812 C 204.589844 45.691406 205.023438 45.226562 205.410156 44.761719 C 205.796875 44.296875 206.117188 43.8125 206.40625 43.351562 C 206.542969 43.113281 206.683594 42.886719 206.796875 42.65625 C 206.925781 42.429688 207.023438 42.199219 207.128906 41.980469 C 207.527344 41.097656 207.769531 40.289062 207.917969 39.613281 C 207.960938 39.449219 207.984375 39.285156 208.015625 39.136719 C 208.03125 39.058594 208.046875 38.988281 208.058594 38.917969 C 208.070312 38.84375 208.078125 38.777344 208.085938 38.710938 C 208.105469 38.578125 208.125 38.457031 208.140625 38.34375 C 208.15625 38.234375 208.164062 38.128906 208.171875 38.039062 C 208.1875 37.855469 208.207031 37.714844 208.210938 37.621094 C 208.214844 37.527344 208.214844 37.476562 208.214844 37.476562 C 208.214844 37.476562 208.21875 37.527344 208.226562 37.621094 C 208.230469 37.714844 208.230469 37.855469 208.230469 38.042969 C 208.230469 38.132812 208.238281 38.238281 208.230469 38.351562 C 208.226562 38.464844 208.222656 38.589844 208.214844 38.722656 C 208.210938 38.792969 208.207031 38.863281 208.207031 38.933594 C 208.199219 39.007812 208.191406 39.082031 208.183594 39.160156 C 208.164062 39.3125 208.15625 39.480469 208.132812 39.652344 C 208.042969 40.347656 207.871094 41.199219 207.535156 42.144531 C 207.445312 42.378906 207.359375 42.625 207.25 42.871094 C 207.148438 43.121094 207.023438 43.367188 206.898438 43.625 C 206.632812 44.132812 206.332031 44.664062 205.957031 45.179688 C 205.585938 45.703125 205.160156 46.222656 204.667969 46.726562 C 204.179688 47.230469 203.621094 47.707031 203.003906 48.152344 C 201.773438 49.039062 200.289062 49.765625 198.621094 50.167969 C 197.789062 50.371094 196.910156 50.496094 196.007812 50.523438 C 195.894531 50.527344 195.78125 50.527344 195.667969 50.53125 L 195.582031 50.53125 C 195.550781 50.535156 195.523438 50.535156 195.503906 50.53125 L 195.367188 50.527344 C 195.320312 50.527344 195.277344 50.527344 195.226562 50.523438 L 195.082031 50.511719 L 194.9375 50.503906 L 194.785156 50.484375 C 194.375 50.433594 193.933594 50.351562 193.472656 50.234375 C 192.550781 50 191.566406 49.648438 190.5625 49.21875 C 189.558594 48.785156 188.539062 48.277344 187.511719 47.714844 C 185.777344 46.761719 184.101562 45.699219 182.503906 44.605469 C 180.90625 43.511719 179.386719 42.386719 177.957031 41.273438 C 177.238281 40.714844 176.546875 40.160156 175.875 39.609375 C 175.542969 39.335938 175.210938 39.0625 174.886719 38.792969 C 174.804688 38.726562 174.726562 38.65625 174.644531 38.589844 L 174.527344 38.488281 L 174.484375 38.449219 C 174.445312 38.414062 174.402344 38.375 174.363281 38.335938 C 174.046875 38.035156 173.785156 37.765625 173.582031 37.53125 C 173.804688 37.355469 174.019531 37.199219 174.210938 37.066406 C 174.304688 37.003906 174.398438 36.941406 174.484375 36.878906 C 174.527344 36.851562 174.570312 36.824219 174.609375 36.796875 L 174.640625 36.777344 C 174.652344 36.769531 174.648438 36.777344 174.703125 36.734375 C 174.785156 36.667969 174.871094 36.601562 174.953125 36.535156 C 176.277344 35.496094 177.441406 34.636719 178.398438 33.949219 C 179.355469 33.261719 180.109375 32.75 180.621094 32.40625 C 180.875 32.230469 181.070312 32.101562 181.203125 32.015625 C 181.335938 31.929688 181.402344 31.886719 181.402344 31.886719 " fill-opacity="1" fill-rule="nonzero"/><path fill="#bf1b2c" d="M 194.617188 19.746094 C 194.617188 19.746094 194.398438 19.789062 193.976562 19.867188 C 193.871094 19.886719 193.753906 19.910156 193.625 19.933594 C 193.496094 19.957031 193.359375 20 193.207031 20.039062 C 193.058594 20.078125 192.898438 20.121094 192.726562 20.164062 C 192.640625 20.1875 192.550781 20.210938 192.457031 20.238281 C 192.367188 20.265625 192.277344 20.296875 192.179688 20.328125 C 191.800781 20.453125 191.375 20.582031 190.925781 20.765625 C 190.703125 20.851562 190.464844 20.941406 190.21875 21.039062 C 189.980469 21.144531 189.730469 21.253906 189.472656 21.367188 C 188.445312 21.832031 187.292969 22.402344 186.0625 23.117188 C 183.59375 24.535156 180.761719 26.453125 177.691406 28.828125 C 176.15625 30.015625 174.5625 31.316406 172.921875 32.722656 C 172.71875 32.898438 172.511719 33.074219 172.304688 33.253906 C 172.085938 33.441406 171.871094 33.632812 171.652344 33.824219 C 171.191406 34.226562 170.730469 34.632812 170.273438 35.046875 C 169.816406 35.460938 169.359375 35.878906 168.90625 36.300781 C 168.679688 36.511719 168.453125 36.722656 168.222656 36.9375 C 168.109375 37.046875 167.996094 37.152344 167.882812 37.261719 L 167.710938 37.421875 L 167.628906 37.503906 L 167.585938 37.542969 L 167.554688 37.574219 C 167.546875 37.578125 167.546875 37.582031 167.550781 37.585938 C 168.964844 38.8125 170.425781 40.03125 171.945312 41.238281 C 172.304688 41.523438 172.667969 41.808594 173.03125 42.097656 C 173.394531 42.375 173.757812 42.660156 174.125 42.945312 C 174.863281 43.507812 175.617188 44.074219 176.386719 44.636719 C 177.921875 45.765625 179.515625 46.882812 181.175781 47.96875 C 182.835938 49.054688 184.5625 50.109375 186.371094 51.074219 C 188.03125 51.960938 189.730469 52.75 191.480469 53.339844 C 192.355469 53.625 193.246094 53.867188 194.15625 54.003906 C 194.609375 54.078125 195.070312 54.113281 195.527344 54.128906 C 195.753906 54.128906 195.976562 54.128906 196.203125 54.128906 C 196.429688 54.128906 196.652344 54.109375 196.878906 54.101562 C 197.773438 54.046875 198.660156 53.933594 199.523438 53.738281 C 200.386719 53.546875 201.226562 53.289062 202.035156 52.980469 C 203.648438 52.339844 205.136719 51.476562 206.433594 50.429688 C 207.089844 49.917969 207.691406 49.347656 208.246094 48.753906 C 208.382812 48.605469 208.527344 48.460938 208.65625 48.304688 C 208.785156 48.152344 208.914062 47.996094 209.042969 47.84375 C 209.171875 47.6875 209.289062 47.527344 209.414062 47.367188 L 209.59375 47.128906 L 209.765625 46.886719 C 210.679688 45.589844 211.375 44.191406 211.882812 42.785156 C 212.875 39.949219 213.074219 37.066406 212.6875 34.519531 C 212.613281 33.878906 212.457031 33.265625 212.328125 32.664062 C 212.242188 32.367188 212.15625 32.078125 212.070312 31.789062 C 212.027344 31.648438 211.992188 31.5 211.9375 31.363281 C 211.886719 31.222656 211.835938 31.085938 211.785156 30.949219 C 211.394531 29.84375 210.871094 28.867188 210.355469 27.96875 C 209.273438 26.199219 208.050781 24.863281 206.953125 23.886719 C 206.816406 23.765625 206.679688 23.648438 206.550781 23.535156 C 206.484375 23.476562 206.417969 23.421875 206.355469 23.363281 C 206.289062 23.3125 206.222656 23.265625 206.15625 23.214844 C 205.898438 23.015625 205.652344 22.832031 205.425781 22.660156 C 205.195312 22.496094 204.972656 22.359375 204.773438 22.226562 C 204.570312 22.097656 204.390625 21.96875 204.222656 21.875 C 203.539062 21.492188 203.179688 21.292969 203.179688 21.292969 C 203.179688 21.292969 203.554688 21.464844 204.265625 21.792969 C 204.441406 21.875 204.628906 21.988281 204.84375 22.105469 C 205.054688 22.222656 205.292969 22.34375 205.535156 22.496094 C 205.777344 22.652344 206.035156 22.820312 206.3125 23 C 206.382812 23.046875 206.453125 23.09375 206.523438 23.140625 C 206.59375 23.191406 206.664062 23.246094 206.734375 23.296875 C 206.875 23.40625 207.019531 23.515625 207.167969 23.628906 C 208.347656 24.546875 209.695312 25.832031 210.925781 27.601562 C 211.515625 28.496094 212.121094 29.488281 212.59375 30.621094 C 212.652344 30.765625 212.714844 30.90625 212.777344 31.046875 C 212.84375 31.191406 212.886719 31.339844 212.941406 31.488281 C 213.050781 31.789062 213.15625 32.089844 213.265625 32.394531 C 213.433594 33.023438 213.632812 33.664062 213.746094 34.339844 C 213.894531 35.011719 213.957031 35.710938 214.035156 36.425781 C 214.050781 36.785156 214.066406 37.144531 214.082031 37.511719 C 214.085938 37.605469 214.089844 37.695312 214.089844 37.789062 C 214.089844 37.882812 214.085938 37.972656 214.085938 38.066406 C 214.082031 38.253906 214.078125 38.4375 214.074219 38.625 C 214.007812 40.128906 213.75 41.6875 213.277344 43.246094 C 212.785156 44.800781 212.085938 46.355469 211.128906 47.8125 L 210.953125 48.085938 L 210.761719 48.355469 C 210.632812 48.53125 210.507812 48.714844 210.375 48.890625 C 210.238281 49.0625 210.101562 49.238281 209.964844 49.414062 C 209.828125 49.589844 209.675781 49.75 209.527344 49.921875 C 208.9375 50.59375 208.292969 51.242188 207.585938 51.832031 C 206.183594 53.03125 204.550781 54.035156 202.765625 54.789062 C 201.867188 55.15625 200.933594 55.464844 199.972656 55.699219 C 199.011719 55.933594 198.015625 56.078125 197.011719 56.15625 C 196.761719 56.167969 196.507812 56.191406 196.253906 56.195312 C 196 56.199219 195.75 56.203125 195.496094 56.207031 C 194.945312 56.199219 194.378906 56.160156 193.851562 56.082031 C 192.789062 55.929688 191.789062 55.667969 190.820312 55.359375 C 188.894531 54.730469 187.101562 53.898438 185.363281 52.972656 C 183.476562 51.964844 181.703125 50.871094 180.011719 49.742188 C 178.320312 48.613281 176.710938 47.449219 175.167969 46.273438 C 174.398438 45.6875 173.644531 45.097656 172.90625 44.507812 C 172.542969 44.210938 172.175781 43.917969 171.816406 43.625 C 171.429688 43.304688 171.042969 42.984375 170.664062 42.667969 C 169.632812 41.808594 168.636719 40.953125 167.691406 40.105469 C 166.75 39.257812 165.84375 38.429688 164.953125 37.609375 C 165.578125 37.027344 166.210938 36.460938 166.828125 35.902344 C 167.449219 35.347656 168.0625 34.796875 168.6875 34.265625 C 169.308594 33.730469 169.925781 33.207031 170.546875 32.699219 C 170.695312 32.574219 170.847656 32.453125 170.996094 32.328125 C 171.105469 32.242188 171.214844 32.15625 171.324219 32.066406 C 171.539062 31.894531 171.753906 31.726562 171.96875 31.554688 C 173.6875 30.203125 175.359375 28.964844 176.972656 27.839844 C 180.191406 25.59375 183.171875 23.820312 185.757812 22.546875 C 187.050781 21.902344 188.253906 21.402344 189.324219 21 C 189.59375 20.90625 189.855469 20.8125 190.101562 20.722656 C 190.355469 20.640625 190.601562 20.570312 190.835938 20.496094 C 191.300781 20.34375 191.742188 20.246094 192.132812 20.144531 C 192.230469 20.121094 192.324219 20.097656 192.417969 20.074219 C 192.511719 20.058594 192.601562 20.039062 192.691406 20.023438 C 192.867188 19.992188 193.035156 19.960938 193.1875 19.929688 C 193.339844 19.90625 193.476562 19.875 193.613281 19.859375 C 193.742188 19.84375 193.863281 19.832031 193.96875 19.816406 C 194.394531 19.769531 194.617188 19.746094 194.617188 19.746094 " fill-opacity="1" fill-rule="nonzero"/><path fill="#bf1b2c" d="M 154.609375 47.285156 C 154.609375 47.285156 154.691406 47.21875 154.847656 47.09375 C 155.007812 46.964844 155.242188 46.78125 155.542969 46.53125 C 156.152344 46.039062 157.035156 45.304688 158.148438 44.351562 C 159.257812 43.398438 160.59375 42.222656 162.097656 40.839844 C 162.285156 40.664062 162.472656 40.488281 162.667969 40.308594 C 162.765625 40.21875 162.859375 40.128906 162.960938 40.039062 L 163.105469 39.902344 C 163.15625 39.855469 163.179688 39.832031 163.214844 39.792969 C 163.488281 39.527344 163.757812 39.257812 164.027344 38.988281 C 164.558594 38.449219 165.097656 37.902344 165.59375 37.351562 C 164.769531 36.707031 163.945312 36.09375 163.136719 35.5 C 163.035156 35.425781 162.9375 35.351562 162.835938 35.277344 C 162.675781 35.160156 162.519531 35.039062 162.359375 34.921875 C 162.027344 34.671875 161.6875 34.417969 161.347656 34.160156 C 160.664062 33.652344 159.964844 33.140625 159.253906 32.628906 C 157.824219 31.601562 156.339844 30.566406 154.804688 29.546875 C 153.265625 28.527344 151.671875 27.53125 150.023438 26.59375 C 148.925781 25.96875 147.828125 25.390625 146.738281 24.878906 C 145.648438 24.367188 144.5625 23.925781 143.511719 23.605469 C 142.984375 23.445312 142.46875 23.308594 141.96875 23.21875 C 141.84375 23.199219 141.722656 23.179688 141.597656 23.160156 C 141.476562 23.140625 141.355469 23.128906 141.234375 23.113281 C 141.117188 23.101562 141 23.097656 140.882812 23.085938 C 140.765625 23.078125 140.625 23.082031 140.496094 23.078125 C 139.449219 23.050781 138.417969 23.136719 137.429688 23.320312 C 135.449219 23.683594 133.636719 24.441406 132.097656 25.425781 C 130.558594 26.40625 129.296875 27.605469 128.304688 28.835938 C 127.816406 29.460938 127.394531 30.089844 127.027344 30.707031 C 126.855469 31.023438 126.675781 31.328125 126.53125 31.636719 C 126.375 31.9375 126.246094 32.242188 126.117188 32.535156 C 125.617188 33.71875 125.339844 34.804688 125.160156 35.703125 C 125.121094 35.929688 125.082031 36.144531 125.046875 36.34375 C 125.019531 36.546875 125 36.738281 124.972656 36.914062 C 124.964844 37.003906 124.953125 37.085938 124.941406 37.167969 C 124.933594 37.25 124.929688 37.328125 124.925781 37.402344 C 124.914062 37.554688 124.90625 37.691406 124.898438 37.8125 C 124.882812 38.058594 124.871094 38.242188 124.863281 38.367188 C 124.859375 38.496094 124.859375 38.558594 124.859375 38.558594 C 124.859375 38.558594 124.847656 38.496094 124.828125 38.371094 C 124.8125 38.246094 124.792969 38.058594 124.769531 37.816406 C 124.757812 37.691406 124.742188 37.554688 124.726562 37.402344 C 124.71875 37.328125 124.710938 37.246094 124.703125 37.164062 C 124.703125 37.082031 124.699219 36.992188 124.695312 36.902344 C 124.691406 36.722656 124.679688 36.527344 124.675781 36.316406 C 124.679688 36.109375 124.683594 35.886719 124.6875 35.648438 C 124.730469 34.707031 124.851562 33.542969 125.210938 32.226562 C 125.304688 31.898438 125.394531 31.558594 125.523438 31.214844 C 125.632812 30.863281 125.78125 30.519531 125.925781 30.15625 C 126.234375 29.441406 126.609375 28.703125 127.066406 27.960938 C 127.992188 26.488281 129.257812 25 130.90625 23.726562 C 132.546875 22.453125 134.574219 21.398438 136.875 20.816406 C 138.023438 20.523438 139.238281 20.351562 140.484375 20.316406 C 140.640625 20.3125 140.792969 20.304688 140.953125 20.304688 C 141.113281 20.3125 141.277344 20.3125 141.441406 20.320312 C 141.601562 20.332031 141.765625 20.339844 141.925781 20.355469 C 142.085938 20.375 142.246094 20.394531 142.40625 20.414062 C 143.050781 20.5 143.683594 20.640625 144.308594 20.808594 C 145.558594 21.144531 146.777344 21.609375 147.976562 22.144531 C 149.175781 22.679688 150.355469 23.289062 151.519531 23.949219 C 153.257812 24.9375 154.902344 26 156.464844 27.09375 C 158.027344 28.183594 159.507812 29.304688 160.914062 30.425781 C 161.617188 30.984375 162.300781 31.546875 162.964844 32.105469 C 163.296875 32.386719 163.625 32.664062 163.949219 32.941406 C 164.292969 33.242188 164.632812 33.535156 164.96875 33.828125 C 166.375 35.058594 167.625 36.226562 168.753906 37.324219 C 166.597656 39.195312 164.601562 40.722656 162.96875 41.910156 C 161.296875 43.125 159.808594 44.125 158.570312 44.921875 C 157.328125 45.714844 156.335938 46.304688 155.65625 46.695312 C 155.320312 46.894531 155.054688 47.039062 154.878906 47.136719 C 154.703125 47.234375 154.609375 47.285156 154.609375 47.285156 " fill-opacity="1" fill-rule="nonzero"/><path fill="#bf1b2c" d="M 163.308594 38.136719 C 163.308594 38.136719 163.351562 38.0625 163.4375 37.921875 C 163.515625 37.785156 163.636719 37.589844 163.75 37.367188 C 163.320312 37.117188 162.832031 36.851562 162.371094 36.621094 C 162.261719 36.566406 162.148438 36.511719 162.03125 36.457031 C 162.003906 36.441406 161.976562 36.429688 161.949219 36.417969 L 161.90625 36.398438 L 161.886719 36.386719 L 161.875 36.382812 L 161.84375 36.359375 C 161.679688 36.246094 161.511719 36.125 161.339844 36.007812 C 160.652344 35.53125 159.921875 35.027344 159.15625 34.503906 C 157.625 33.460938 155.949219 32.335938 154.160156 31.191406 C 152.371094 30.050781 150.46875 28.878906 148.503906 27.800781 C 147.125 27.046875 145.777344 26.371094 144.511719 25.84375 C 143.253906 25.316406 142.058594 24.953125 141.136719 24.820312 C 141.019531 24.800781 140.917969 24.792969 140.808594 24.777344 C 140.664062 24.769531 140.523438 24.761719 140.386719 24.757812 C 140.316406 24.753906 140.246094 24.75 140.175781 24.746094 C 140.105469 24.742188 140.039062 24.742188 139.96875 24.742188 C 139.828125 24.742188 139.691406 24.742188 139.554688 24.738281 C 139.417969 24.738281 139.285156 24.75 139.148438 24.753906 C 139.015625 24.761719 138.878906 24.757812 138.75 24.773438 C 138.484375 24.800781 138.222656 24.8125 137.96875 24.855469 C 136.945312 24.984375 135.996094 25.21875 135.152344 25.515625 C 134.304688 25.808594 133.558594 26.160156 132.921875 26.511719 C 132.757812 26.59375 132.613281 26.691406 132.464844 26.777344 C 132.320312 26.863281 132.175781 26.945312 132.046875 27.035156 C 131.917969 27.121094 131.789062 27.203125 131.667969 27.285156 C 131.550781 27.367188 131.441406 27.449219 131.335938 27.527344 C 131.121094 27.671875 130.945312 27.824219 130.78125 27.949219 C 130.621094 28.070312 130.492188 28.183594 130.386719 28.273438 C 130.28125 28.363281 130.199219 28.433594 130.144531 28.480469 C 130.117188 28.503906 130.097656 28.519531 130.085938 28.535156 C 130.070312 28.546875 130.066406 28.550781 130.066406 28.550781 C 130.066406 28.550781 130.070312 28.542969 130.078125 28.527344 C 130.089844 28.511719 130.101562 28.488281 130.125 28.460938 C 130.164062 28.402344 130.222656 28.3125 130.304688 28.199219 C 130.382812 28.082031 130.476562 27.933594 130.605469 27.777344 C 130.734375 27.613281 130.871094 27.417969 131.050781 27.21875 C 131.140625 27.117188 131.234375 27.007812 131.332031 26.894531 C 131.433594 26.789062 131.542969 26.675781 131.65625 26.554688 C 131.769531 26.433594 131.894531 26.316406 132.023438 26.195312 C 132.15625 26.074219 132.289062 25.941406 132.4375 25.820312 C 133.023438 25.3125 133.738281 24.78125 134.597656 24.296875 C 135.457031 23.8125 136.464844 23.378906 137.601562 23.0625 C 137.882812 22.976562 138.175781 22.921875 138.476562 22.851562 C 138.625 22.8125 138.777344 22.796875 138.929688 22.765625 C 139.082031 22.742188 139.238281 22.710938 139.394531 22.691406 C 139.550781 22.675781 139.710938 22.65625 139.871094 22.636719 C 139.949219 22.628906 140.03125 22.617188 140.109375 22.613281 C 140.191406 22.609375 140.273438 22.601562 140.355469 22.597656 C 140.519531 22.589844 140.683594 22.578125 140.847656 22.570312 C 141 22.570312 141.152344 22.5625 141.308594 22.570312 C 142.570312 22.609375 143.992188 22.941406 145.425781 23.457031 C 146.863281 23.96875 148.328125 24.65625 149.785156 25.457031 C 151.859375 26.59375 153.78125 27.878906 155.539062 29.167969 C 157.296875 30.460938 158.894531 31.765625 160.3125 33 C 161.023438 33.617188 161.691406 34.214844 162.3125 34.792969 C 162.464844 34.9375 162.617188 35.078125 162.769531 35.21875 L 162.8125 35.261719 L 162.84375 35.296875 L 162.910156 35.359375 C 162.949219 35.40625 162.992188 35.449219 163.03125 35.492188 C 163.191406 35.660156 163.339844 35.820312 163.472656 35.972656 C 164.015625 36.578125 164.359375 37.03125 164.574219 37.359375 C 164.148438 37.652344 163.828125 37.839844 163.621094 37.960938 C 163.410156 38.082031 163.308594 38.136719 163.308594 38.136719 " fill-opacity="1" fill-rule="nonzero"/><g clip-path="url(#0851679dea)"><path fill="#bf1b2c" d="M 165.40625 44.140625 C 165.40625 44.140625 165.515625 44.03125 165.726562 43.824219 C 165.835938 43.722656 165.96875 43.589844 166.128906 43.4375 C 166.386719 43.195312 166.6875 42.914062 167.027344 42.597656 C 167.699219 41.96875 168.511719 41.191406 169.414062 40.296875 C 170.308594 39.398438 171.300781 38.398438 172.386719 37.292969 C 171.441406 36.507812 170.421875 35.664062 169.332031 34.757812 C 168.261719 33.875 167.101562 32.960938 165.894531 32.035156 C 165.546875 31.769531 165.398438 31.660156 165.179688 31.5 C 164.972656 31.351562 164.761719 31.199219 164.550781 31.042969 C 164.125 30.738281 163.6875 30.421875 163.242188 30.101562 C 162.347656 29.464844 161.40625 28.808594 160.425781 28.140625 C 158.464844 26.804688 156.335938 25.410156 154.019531 24.046875 C 152.859375 23.363281 151.65625 22.6875 150.390625 22.046875 C 149.125 21.402344 147.796875 20.792969 146.378906 20.257812 C 145.792969 20.035156 145.195312 19.839844 144.582031 19.660156 C 143.96875 19.484375 143.347656 19.332031 142.699219 19.222656 C 142.375 19.167969 142.046875 19.117188 141.710938 19.089844 L 141.460938 19.0625 L 141.203125 19.050781 L 140.949219 19.035156 C 140.867188 19.03125 140.792969 19.035156 140.710938 19.03125 C 140.085938 19.023438 139.464844 19.039062 138.851562 19.085938 C 136.390625 19.277344 134.050781 19.949219 131.996094 20.953125 C 129.941406 21.957031 128.167969 23.289062 126.722656 24.75 C 126.546875 24.9375 126.363281 25.113281 126.195312 25.304688 C 126.027344 25.492188 125.859375 25.683594 125.695312 25.867188 C 125.382812 26.253906 125.070312 26.632812 124.792969 27.027344 C 124.230469 27.808594 123.738281 28.597656 123.328125 29.386719 C 123.113281 29.777344 122.941406 30.175781 122.757812 30.558594 C 122.675781 30.753906 122.59375 30.949219 122.515625 31.136719 C 122.476562 31.234375 122.4375 31.328125 122.398438 31.421875 C 122.363281 31.519531 122.328125 31.613281 122.292969 31.710938 C 122.226562 31.898438 122.15625 32.085938 122.089844 32.269531 C 122.027344 32.457031 121.976562 32.640625 121.917969 32.824219 C 121.863281 33.007812 121.800781 33.183594 121.757812 33.363281 C 121.714844 33.542969 121.667969 33.71875 121.625 33.894531 C 121.285156 35.285156 121.132812 36.519531 121.082031 37.53125 C 121.070312 37.785156 121.058594 38.027344 121.050781 38.253906 C 121.046875 38.367188 121.042969 38.476562 121.039062 38.582031 C 121.035156 38.6875 121.039062 38.789062 121.042969 38.886719 C 121.054688 39.28125 121.0625 39.613281 121.070312 39.882812 C 121.074219 40.019531 121.078125 40.140625 121.089844 40.242188 C 121.101562 40.34375 121.109375 40.429688 121.117188 40.496094 C 121.128906 40.636719 121.136719 40.707031 121.136719 40.707031 C 121.136719 40.707031 121.117188 40.636719 121.085938 40.503906 C 121.070312 40.433594 121.050781 40.351562 121.027344 40.25 C 121 40.148438 120.976562 40.03125 120.957031 39.898438 C 120.914062 39.628906 120.859375 39.296875 120.796875 38.902344 C 120.78125 38.804688 120.765625 38.703125 120.753906 38.597656 C 120.742188 38.488281 120.734375 38.378906 120.722656 38.265625 C 120.703125 38.035156 120.6875 37.792969 120.664062 37.535156 C 120.59375 36.5 120.597656 35.21875 120.792969 33.738281 C 120.820312 33.550781 120.847656 33.363281 120.875 33.171875 C 120.902344 32.980469 120.945312 32.789062 120.984375 32.589844 C 121.023438 32.394531 121.058594 32.195312 121.105469 31.992188 C 121.15625 31.792969 121.207031 31.589844 121.257812 31.382812 C 121.285156 31.28125 121.3125 31.175781 121.339844 31.070312 C 121.371094 30.96875 121.402344 30.863281 121.433594 30.757812 C 121.5 30.546875 121.5625 30.335938 121.628906 30.121094 C 121.785156 29.695312 121.929688 29.253906 122.121094 28.820312 C 122.480469 27.9375 122.933594 27.042969 123.476562 26.152344 C 123.738281 25.703125 124.042969 25.265625 124.351562 24.816406 C 124.515625 24.601562 124.679688 24.382812 124.847656 24.160156 C 125.015625 23.941406 125.199219 23.730469 125.378906 23.511719 C 126.84375 21.800781 128.710938 20.195312 130.957031 18.953125 C 133.199219 17.710938 135.820312 16.832031 138.613281 16.539062 C 139.3125 16.464844 140.019531 16.425781 140.730469 16.425781 C 140.824219 16.425781 140.902344 16.421875 141.003906 16.421875 L 141.636719 16.445312 L 141.941406 16.472656 C 142.144531 16.488281 142.347656 16.503906 142.542969 16.53125 C 142.734375 16.558594 142.9375 16.578125 143.125 16.613281 C 143.894531 16.730469 144.613281 16.902344 145.304688 17.09375 C 146 17.289062 146.667969 17.511719 147.3125 17.753906 C 148.867188 18.335938 150.277344 19.007812 151.597656 19.710938 C 152.921875 20.414062 154.15625 21.15625 155.328125 21.90625 C 157.667969 23.410156 159.765625 24.957031 161.660156 26.457031 C 162.609375 27.207031 163.507812 27.945312 164.355469 28.667969 C 164.777344 29.027344 165.191406 29.382812 165.589844 29.734375 C 165.789062 29.910156 165.988281 30.082031 166.179688 30.253906 C 166.277344 30.339844 166.375 30.425781 166.46875 30.511719 L 166.542969 30.578125 L 166.65625 30.675781 C 166.742188 30.75 166.832031 30.828125 166.917969 30.902344 C 168.304688 32.105469 169.578125 33.253906 170.695312 34.328125 C 171.785156 35.378906 172.808594 36.367188 173.757812 37.28125 C 172.339844 38.523438 171.105469 39.589844 170.027344 40.511719 C 168.9375 41.429688 167.996094 42.183594 167.234375 42.78125 C 166.855469 43.074219 166.519531 43.335938 166.230469 43.558594 C 166.050781 43.6875 165.898438 43.796875 165.773438 43.882812 C 165.53125 44.050781 165.40625 44.140625 165.40625 44.140625 " fill-opacity="1" fill-rule="nonzero"/></g><path fill="#bf1b2c" d="M 154.949219 43.023438 C 154.949219 43.023438 155.011719 42.972656 155.136719 42.875 C 155.257812 42.78125 155.445312 42.632812 155.683594 42.441406 C 156.167969 42.058594 156.878906 41.492188 157.78125 40.738281 C 158.6875 39.988281 159.789062 39.054688 161.042969 37.945312 C 161.121094 37.878906 161.203125 37.808594 161.28125 37.738281 C 161.335938 37.691406 161.320312 37.699219 161.328125 37.695312 L 161.335938 37.679688 C 161.34375 37.664062 161.355469 37.648438 161.363281 37.632812 C 161.382812 37.597656 161.398438 37.566406 161.414062 37.539062 C 161.441406 37.480469 161.464844 37.429688 161.472656 37.386719 C 161.355469 37.332031 161.257812 37.296875 161.1875 37.28125 C 161.179688 37.277344 161.171875 37.277344 161.164062 37.273438 C 161.160156 37.273438 161.160156 37.273438 161.160156 37.273438 L 161.15625 37.273438 L 161.140625 37.261719 L 161.019531 37.167969 C 160.9375 37.101562 160.855469 37.039062 160.773438 36.972656 C 160.441406 36.71875 160.105469 36.460938 159.765625 36.195312 C 159.085938 35.675781 158.378906 35.148438 157.65625 34.613281 C 156.210938 33.550781 154.6875 32.46875 153.101562 31.417969 C 151.511719 30.363281 149.859375 29.335938 148.171875 28.410156 C 147.179688 27.863281 146.195312 27.367188 145.242188 26.949219 C 144.292969 26.527344 143.371094 26.1875 142.539062 25.957031 C 142.125 25.839844 141.742188 25.757812 141.398438 25.707031 L 141.269531 25.6875 L 141.148438 25.675781 L 141.03125 25.664062 C 140.992188 25.65625 140.960938 25.65625 140.921875 25.65625 L 140.816406 25.648438 L 140.789062 25.644531 L 140.671875 25.644531 C 140.570312 25.644531 140.464844 25.644531 140.363281 25.644531 C 139.542969 25.644531 138.746094 25.726562 137.980469 25.878906 C 136.449219 26.1875 135.058594 26.785156 133.875 27.542969 C 133.28125 27.921875 132.734375 28.335938 132.246094 28.773438 C 131.761719 29.21875 131.328125 29.679688 130.941406 30.148438 C 130.550781 30.613281 130.234375 31.09375 129.941406 31.558594 C 129.804688 31.792969 129.664062 32.023438 129.550781 32.253906 C 129.425781 32.480469 129.324219 32.710938 129.222656 32.929688 C 128.820312 33.8125 128.578125 34.621094 128.429688 35.292969 C 128.390625 35.460938 128.367188 35.625 128.335938 35.773438 C 128.320312 35.847656 128.304688 35.921875 128.289062 35.992188 C 128.28125 36.0625 128.269531 36.132812 128.261719 36.199219 C 128.242188 36.332031 128.226562 36.453125 128.207031 36.566406 C 128.191406 36.675781 128.1875 36.78125 128.175781 36.871094 C 128.160156 37.054688 128.144531 37.195312 128.136719 37.289062 C 128.136719 37.382812 128.132812 37.429688 128.132812 37.429688 C 128.132812 37.429688 128.128906 37.382812 128.121094 37.289062 C 128.117188 37.195312 128.121094 37.054688 128.117188 36.867188 C 128.117188 36.777344 128.113281 36.671875 128.117188 36.558594 C 128.125 36.445312 128.128906 36.320312 128.136719 36.183594 C 128.136719 36.117188 128.140625 36.046875 128.144531 35.972656 C 128.152344 35.902344 128.160156 35.828125 128.167969 35.75 C 128.183594 35.597656 128.191406 35.429688 128.21875 35.257812 C 128.304688 34.558594 128.476562 33.710938 128.816406 32.765625 C 128.902344 32.53125 128.988281 32.285156 129.101562 32.039062 C 129.199219 31.789062 129.328125 31.542969 129.453125 31.285156 C 129.71875 30.777344 130.015625 30.246094 130.390625 29.726562 C 130.765625 29.207031 131.191406 28.6875 131.679688 28.179688 C 132.171875 27.679688 132.726562 27.199219 133.34375 26.757812 C 134.574219 25.871094 136.058594 25.144531 137.726562 24.738281 C 138.5625 24.539062 139.4375 24.414062 140.34375 24.386719 C 140.457031 24.382812 140.570312 24.382812 140.683594 24.378906 L 140.769531 24.375 C 140.800781 24.375 140.828125 24.375 140.847656 24.375 L 140.984375 24.378906 C 141.03125 24.382812 141.074219 24.382812 141.121094 24.382812 L 141.265625 24.394531 L 141.414062 24.40625 L 141.566406 24.425781 C 141.972656 24.472656 142.414062 24.554688 142.875 24.671875 C 143.796875 24.910156 144.785156 25.257812 145.785156 25.691406 C 146.789062 26.121094 147.8125 26.632812 148.835938 27.195312 C 150.574219 28.148438 152.25 29.210938 153.847656 30.304688 C 155.445312 31.394531 156.964844 32.523438 158.394531 33.636719 C 159.109375 34.195312 159.804688 34.75 160.472656 35.296875 C 160.808594 35.574219 161.136719 35.847656 161.460938 36.117188 C 161.542969 36.183594 161.625 36.25 161.703125 36.320312 L 161.824219 36.421875 L 161.867188 36.457031 C 161.90625 36.496094 161.945312 36.535156 161.988281 36.574219 C 162.300781 36.875 162.5625 37.144531 162.769531 37.375 C 162.542969 37.554688 162.328125 37.710938 162.136719 37.84375 C 162.042969 37.90625 161.953125 37.96875 161.863281 38.027344 C 161.820312 38.058594 161.78125 38.082031 161.738281 38.109375 L 161.710938 38.128906 C 161.695312 38.136719 161.703125 38.132812 161.648438 38.175781 C 161.5625 38.242188 161.480469 38.308594 161.398438 38.371094 C 160.070312 39.410156 158.910156 40.273438 157.953125 40.960938 C 156.996094 41.648438 156.242188 42.160156 155.730469 42.503906 C 155.476562 42.679688 155.28125 42.808594 155.148438 42.890625 C 155.015625 42.976562 154.949219 43.023438 154.949219 43.023438 " fill-opacity="1" fill-rule="nonzero"/><path fill="#bf1b2c" d="M 141.734375 55.164062 C 141.734375 55.164062 141.953125 55.121094 142.371094 55.042969 C 142.476562 55.019531 142.59375 55 142.726562 54.972656 C 142.855469 54.949219 142.988281 54.90625 143.140625 54.871094 C 143.289062 54.832031 143.453125 54.789062 143.625 54.742188 C 143.710938 54.71875 143.800781 54.695312 143.890625 54.671875 C 143.980469 54.644531 144.074219 54.613281 144.167969 54.582031 C 144.546875 54.457031 144.976562 54.328125 145.421875 54.144531 C 145.648438 54.054688 145.886719 53.96875 146.128906 53.867188 C 146.367188 53.765625 146.617188 53.65625 146.878906 53.542969 C 147.90625 53.078125 149.058594 52.507812 150.289062 51.792969 C 152.757812 50.375 155.589844 48.457031 158.65625 46.082031 C 160.191406 44.894531 161.785156 43.59375 163.429688 42.1875 C 163.632812 42.011719 163.839844 41.832031 164.046875 41.65625 C 164.261719 41.464844 164.480469 41.277344 164.699219 41.085938 C 165.160156 40.683594 165.617188 40.273438 166.078125 39.863281 C 166.535156 39.449219 166.992188 39.03125 167.445312 38.609375 C 167.671875 38.398438 167.898438 38.183594 168.125 37.972656 C 168.238281 37.863281 168.355469 37.757812 168.46875 37.648438 L 168.636719 37.488281 L 168.722656 37.40625 L 168.796875 37.332031 C 168.800781 37.332031 168.800781 37.328125 168.796875 37.324219 C 167.386719 36.097656 165.925781 34.878906 164.40625 33.667969 C 164.046875 33.386719 163.683594 33.101562 163.316406 32.8125 C 162.957031 32.53125 162.589844 32.25 162.222656 31.964844 C 161.484375 31.402344 160.730469 30.835938 159.964844 30.273438 C 158.429688 29.144531 156.832031 28.027344 155.171875 26.9375 C 153.511719 25.851562 151.789062 24.800781 149.980469 23.835938 C 148.316406 22.949219 146.621094 22.160156 144.871094 21.570312 C 143.992188 21.28125 143.101562 21.042969 142.195312 20.90625 C 141.742188 20.832031 141.28125 20.796875 140.824219 20.78125 C 140.597656 20.78125 140.371094 20.78125 140.144531 20.78125 C 139.921875 20.78125 139.695312 20.800781 139.472656 20.808594 C 138.574219 20.863281 137.6875 20.976562 136.824219 21.167969 C 135.964844 21.363281 135.125 21.617188 134.3125 21.929688 C 132.699219 22.570312 131.210938 23.433594 129.914062 24.476562 C 129.257812 24.992188 128.660156 25.558594 128.101562 26.152344 C 127.96875 26.304688 127.824219 26.449219 127.695312 26.605469 C 127.5625 26.757812 127.433594 26.910156 127.304688 27.066406 C 127.175781 27.21875 127.058594 27.382812 126.9375 27.539062 L 126.753906 27.777344 L 126.585938 28.023438 C 125.667969 29.320312 124.976562 30.714844 124.464844 32.125 C 123.476562 34.960938 123.273438 37.84375 123.664062 40.390625 C 123.734375 41.03125 123.894531 41.640625 124.019531 42.246094 C 124.109375 42.539062 124.195312 42.832031 124.277344 43.121094 C 124.324219 43.261719 124.359375 43.40625 124.410156 43.546875 C 124.464844 43.683594 124.515625 43.820312 124.566406 43.957031 C 124.953125 45.0625 125.476562 46.042969 125.992188 46.9375 C 127.074219 48.707031 128.300781 50.046875 129.394531 51.023438 C 129.535156 51.144531 129.667969 51.261719 129.800781 51.375 C 129.867188 51.433594 129.929688 51.488281 129.992188 51.542969 C 130.0625 51.59375 130.125 51.644531 130.191406 51.695312 C 130.453125 51.890625 130.695312 52.078125 130.921875 52.25 C 131.152344 52.414062 131.378906 52.550781 131.578125 52.683594 C 131.78125 52.8125 131.960938 52.9375 132.128906 53.035156 C 132.8125 53.414062 133.171875 53.613281 133.171875 53.613281 C 133.171875 53.613281 132.796875 53.445312 132.085938 53.117188 C 131.90625 53.03125 131.71875 52.921875 131.507812 52.804688 C 131.296875 52.6875 131.058594 52.566406 130.8125 52.414062 C 130.574219 52.257812 130.3125 52.089844 130.035156 51.90625 C 129.964844 51.863281 129.894531 51.816406 129.824219 51.769531 C 129.757812 51.71875 129.6875 51.664062 129.617188 51.609375 C 129.476562 51.503906 129.332031 51.394531 129.183594 51.28125 C 128 50.363281 126.65625 49.078125 125.425781 47.308594 C 124.832031 46.414062 124.230469 45.421875 123.757812 44.285156 C 123.695312 44.144531 123.632812 44.003906 123.570312 43.859375 C 123.507812 43.71875 123.460938 43.570312 123.40625 43.421875 C 123.300781 43.121094 123.195312 42.820312 123.085938 42.511719 C 122.917969 41.886719 122.714844 41.246094 122.605469 40.570312 C 122.453125 39.898438 122.394531 39.199219 122.3125 38.484375 C 122.296875 38.125 122.285156 37.761719 122.269531 37.394531 C 122.265625 37.304688 122.257812 37.210938 122.257812 37.121094 C 122.261719 37.027344 122.261719 36.933594 122.265625 36.84375 C 122.269531 36.65625 122.273438 36.46875 122.277344 36.28125 C 122.339844 34.78125 122.601562 33.222656 123.074219 31.664062 C 123.566406 30.109375 124.265625 28.554688 125.222656 27.097656 L 125.398438 26.824219 L 125.585938 26.554688 C 125.714844 26.378906 125.839844 26.195312 125.976562 26.019531 C 126.113281 25.847656 126.25 25.671875 126.386719 25.496094 C 126.523438 25.320312 126.675781 25.15625 126.820312 24.988281 C 127.414062 24.3125 128.058594 23.667969 128.765625 23.074219 C 130.167969 21.878906 131.796875 20.875 133.585938 20.121094 C 134.480469 19.75 135.414062 19.445312 136.378906 19.210938 C 137.339844 18.972656 138.332031 18.832031 139.339844 18.753906 C 139.589844 18.742188 139.84375 18.714844 140.09375 18.710938 C 140.347656 18.710938 140.601562 18.707031 140.855469 18.703125 C 141.402344 18.710938 141.96875 18.75 142.496094 18.828125 C 143.5625 18.980469 144.5625 19.242188 145.527344 19.550781 C 147.453125 20.179688 149.25 21.011719 150.988281 21.933594 C 152.875 22.941406 154.644531 24.039062 156.335938 25.167969 C 158.027344 26.296875 159.640625 27.460938 161.179688 28.632812 C 161.953125 29.222656 162.707031 29.8125 163.441406 30.402344 C 163.808594 30.699219 164.171875 30.992188 164.535156 31.285156 C 164.921875 31.605469 165.304688 31.925781 165.6875 32.242188 C 166.714844 33.101562 167.714844 33.957031 168.65625 34.804688 C 169.597656 35.652344 170.507812 36.480469 171.398438 37.300781 C 170.773438 37.882812 170.140625 38.449219 169.519531 39.003906 C 168.902344 39.5625 168.285156 40.109375 167.664062 40.644531 C 167.042969 41.179688 166.421875 41.703125 165.804688 42.210938 C 165.652344 42.332031 165.503906 42.457031 165.351562 42.582031 C 165.242188 42.667969 165.136719 42.753906 165.027344 42.839844 C 164.808594 43.011719 164.59375 43.183594 164.378906 43.351562 C 162.660156 44.707031 160.988281 45.945312 159.378906 47.066406 C 156.160156 49.316406 153.179688 51.089844 150.589844 52.363281 C 149.300781 53.007812 148.09375 53.507812 147.023438 53.90625 C 146.753906 54.003906 146.496094 54.097656 146.246094 54.183594 C 145.996094 54.269531 145.746094 54.339844 145.515625 54.414062 C 145.050781 54.566406 144.609375 54.664062 144.21875 54.761719 C 144.121094 54.785156 144.023438 54.808594 143.933594 54.832031 C 143.839844 54.851562 143.746094 54.867188 143.660156 54.886719 C 143.480469 54.917969 143.316406 54.949219 143.164062 54.976562 C 143.007812 55.003906 142.871094 55.035156 142.738281 55.050781 C 142.605469 55.066406 142.488281 55.078125 142.378906 55.089844 C 141.953125 55.136719 141.734375 55.164062 141.734375 55.164062 " fill-opacity="1" fill-rule="nonzero"/><g clip-path="url(#440ce359bf)"><g transform="matrix(1, 0, 0, 1, -0.000000000000001776, 5)"><g clip-path="url(#a878583637)"><g fill="#000000" fill-opacity="1"><g transform="translate(1.328435, 49.774565)"><g><path d="M 7.984375 -23.953125 L 0 -23.953125 L 0 -31.9375 L 7.984375 -31.9375 Z M 55.90625 -31.9375 L 7.984375 -31.9375 L 7.984375 -39.9375 L 55.90625 -39.9375 Z M 47.921875 -23.953125 L 47.921875 -15.96875 L 7.984375 -15.96875 L 7.984375 -23.953125 Z M 7.984375 -15.96875 L 7.984375 0 L 0 0 L 0 -15.96875 Z M 7.984375 -15.96875 "/></g></g></g><g fill="#000000" fill-opacity="1"><g transform="translate(65.203886, 49.774565)"><g><path d="M 47.921875 0 L 7.984375 0 L 7.984375 -7.984375 L 47.921875 -7.984375 Z M 7.984375 -7.984375 L 0 -7.984375 L 0 -39.9375 L 7.984375 -39.9375 Z M 7.984375 -7.984375 "/></g></g></g><g fill="#000000" fill-opacity="1"><g transform="translate(121.096469, 49.774565)"><g/></g></g><g fill="#000000" fill-opacity="1"><g transform="translate(157.026409, 49.774565)"><g/></g></g><g fill="#000000" fill-opacity="1"><g transform="translate(192.95635, 49.774565)"><g/></g></g><g fill="#000000" fill-opacity="1"><g transform="translate(228.895145, 49.774565)"><g><path d="M 7.984375 -23.953125 L 0 -23.953125 L 0 -31.9375 L 7.984375 -31.9375 Z M 55.90625 -31.9375 L 7.984375 -31.9375 L 7.984375 -39.9375 L 55.90625 -39.9375 Z M 47.921875 -23.953125 L 47.921875 -15.96875 L 7.984375 -15.96875 L 7.984375 -23.953125 Z M 7.984375 -15.96875 L 7.984375 0 L 0 0 L 0 -15.96875 Z M 7.984375 -15.96875 "/></g></g></g></g></g></g><g clip-path="url(#2d9a5b0c63)"><g transform="matrix(1, 0, 0, 1, 286, 0)"><g clip-path="url(#aeae5008f3)"><g fill="#000000" fill-opacity="1"><g transform="translate(0.249878, 45.707959)"><g><path d="M 21.09375 -3.171875 L 22.109375 -3.21875 L 22.984375 -3.5625 L 23.96875 -3.65625 L 24.84375 -4.203125 L 26.75 -4.9375 L 27.578125 -5.375 L 30.125 -7.65625 L 31 -8.828125 L 31.53125 -9.8125 L 32.0625 -10.640625 L 32.453125 -11.5625 L 33.34375 -15.515625 L 33.234375 -18.640625 L 33.09375 -19.53125 L 33.046875 -20.453125 L 32.703125 -21.328125 L 32.0625 -23.484375 L 31.09375 -25.140625 L 29.875 -26.796875 L 26.75 -29.234375 L 25.828125 -29.671875 L 24.84375 -29.96875 L 23.96875 -30.359375 L 23.046875 -30.453125 L 21.96875 -30.75 L 19.46875 -31 L 17.078125 -30.84375 L 14.296875 -29.96875 L 11.625 -28.75 L 10.78125 -28.109375 L 9.28125 -26.65625 L 8.15625 -25.234375 L 7.078125 -23.484375 L 6.640625 -22.546875 L 6.34375 -21.53125 L 6.25 -20.703125 L 5.953125 -19.671875 L 5.8125 -18.453125 L 6.15625 -13.46875 L 7.078125 -10.59375 L 7.46875 -9.859375 L 8 -9.03125 L 9.421875 -7.265625 L 11.5625 -5.421875 L 12.390625 -4.875 L 15.1875 -3.65625 L 17.625 -3.3125 Z M 19.53125 -4.25 L 16.15625 -4.640625 L 15.328125 -4.9375 L 13.46875 -5.46875 L 12.640625 -5.90625 L 11.125 -7.078125 L 9.71875 -8.4375 L 8.6875 -10.109375 L 8.15625 -10.734375 L 7.46875 -12.6875 L 7.03125 -14.640625 L 6.9375 -15.578125 L 6.984375 -18.453125 L 7.765625 -22.15625 L 8.25 -23.09375 L 8.59375 -24.109375 L 9.078125 -24.984375 L 11.953125 -27.578125 L 13.5625 -28.65625 L 14.40625 -29 L 15.375 -29.140625 L 17.1875 -29.671875 L 19.671875 -29.828125 L 21.03125 -29.671875 L 22.0625 -29.625 L 23.765625 -29.28125 L 26.5 -28.0625 L 28.015625 -26.9375 L 29.484375 -25.671875 L 30.265625 -24.40625 L 31.671875 -21.375 L 31.921875 -20.453125 L 32.171875 -16.9375 L 32.0625 -14.640625 L 31.671875 -12.734375 L 31.28125 -11.671875 L 30.5625 -10.109375 L 29.921875 -9.28125 L 29.4375 -8.546875 L 28.84375 -7.8125 L 28.0625 -7.03125 L 27.234375 -6.546875 L 26.5 -5.90625 L 23.828125 -4.78125 L 22.890625 -4.640625 L 22.015625 -4.390625 Z M 19.53125 -4.25 "/></g></g></g><g clip-path="url(#6770431b52)"><g fill="#000000" fill-opacity="1"><g transform="translate(29.573621, 45.707959)"><g><path d="M 17.03125 -2.875 L 18.0625 -2.984375 L 20.9375 -3.90625 L 21.8125 -4.25 L 23.4375 -5.421875 L 24.0625 -6.09375 L 24.703125 -7.078125 L 25.4375 -8.828125 L 25.375 -11.90625 L 24.703125 -13.71875 L 24.109375 -14.34375 L 22.703125 -15.671875 L 21.8125 -16.203125 L 18.84375 -16.9375 L 13.859375 -17.53125 L 12.984375 -17.765625 L 11.90625 -17.96875 L 10.15625 -18.59375 L 9.125 -19.03125 L 8.390625 -19.625 L 7.328125 -21.1875 L 7.078125 -22.0625 L 7.03125 -25.1875 L 7.421875 -26.15625 L 7.90625 -27 L 9.28125 -28.359375 L 11.8125 -29.734375 L 12.84375 -30.015625 L 16.796875 -30.265625 L 19.46875 -29.4375 L 20.5 -28.953125 L 21.28125 -28.40625 L 22.84375 -26.84375 L 23.578125 -26.9375 L 23.375 -27.78125 L 22.796875 -28.609375 L 22.0625 -29.09375 L 21.28125 -29.78125 L 19.421875 -30.5 L 18.59375 -30.953125 L 16.640625 -31.34375 L 13.765625 -31.234375 L 11.859375 -30.953125 L 8.828125 -29.34375 L 7.125 -27.828125 L 5.953125 -24.984375 L 5.953125 -23.71875 L 6.203125 -21.28125 L 6.59375 -20.25 L 6.984375 -19.53125 L 7.609375 -18.890625 L 8.390625 -18.203125 L 10.9375 -16.9375 L 13.28125 -16.453125 L 16.6875 -16.109375 L 17.578125 -16.109375 L 20.5 -15.578125 L 21.28125 -15.1875 L 22.984375 -14.0625 L 24.015625 -12.6875 L 24.359375 -11.765625 L 24.40625 -10.34375 L 24.265625 -8.78125 L 23.921875 -7.859375 L 23.375 -7.171875 L 22.796875 -6.203125 L 21.09375 -5.171875 L 20.0625 -4.6875 L 17.234375 -3.953125 L 15.625 -3.90625 L 12.296875 -4.203125 L 11.375 -4.640625 L 10.5 -4.875 L 8.9375 -5.953125 L 8.203125 -6.59375 L 7.46875 -7.375 L 6.828125 -7.375 L 7.03125 -6.640625 L 7.5625 -5.765625 L 8.78125 -4.6875 L 9.5625 -4.203125 L 11.46875 -3.375 L 13.234375 -2.921875 Z M 17.03125 -2.875 "/></g></g></g></g></g></g></g><g transform="matrix(1, 0, 0, 1, 292, 47)"><g clip-path="url(#5be7f62055)"><g fill="#000000" fill-opacity="1"><g transform="translate(1.264817, 9.643825)"><g><path d="M 6 -7.140625 L 6.75 -7.140625 L 6.75 0 L 6.03125 0 L 1.625 -5.859375 L 1.625 0 L 0.875 0 L 0.875 -7.140625 L 1.578125 -7.140625 L 6 -1.265625 Z M 6 -7.140625 "/></g></g></g><g fill="#000000" fill-opacity="1"><g transform="translate(11.363946, 9.643825)"><g><path d="M 5.484375 -2.421875 L 5.46875 -2.265625 L 1.265625 -2.265625 C 1.285156 -1.960938 1.375 -1.6875 1.53125 -1.4375 C 1.6875 -1.195312 1.894531 -1.003906 2.15625 -0.859375 C 2.414062 -0.710938 2.703125 -0.640625 3.015625 -0.640625 C 3.367188 -0.640625 3.6875 -0.734375 3.96875 -0.921875 C 4.257812 -1.117188 4.472656 -1.367188 4.609375 -1.671875 L 5.390625 -1.671875 C 5.285156 -1.335938 5.117188 -1.035156 4.890625 -0.765625 C 4.660156 -0.503906 4.382812 -0.296875 4.0625 -0.140625 C 3.738281 0.015625 3.390625 0.09375 3.015625 0.09375 C 2.554688 0.09375 2.140625 -0.015625 1.765625 -0.234375 C 1.390625 -0.460938 1.085938 -0.765625 0.859375 -1.140625 C 0.640625 -1.515625 0.53125 -1.925781 0.53125 -2.375 C 0.53125 -2.832031 0.640625 -3.25 0.859375 -3.625 C 1.085938 -4 1.390625 -4.296875 1.765625 -4.515625 C 2.140625 -4.742188 2.554688 -4.859375 3.015625 -4.859375 C 3.460938 -4.859375 3.867188 -4.75 4.234375 -4.53125 C 4.609375 -4.3125 4.90625 -4.019531 5.125 -3.65625 C 5.351562 -3.289062 5.472656 -2.878906 5.484375 -2.421875 Z M 3.015625 -4.109375 C 2.628906 -4.109375 2.285156 -4 1.984375 -3.78125 C 1.691406 -3.570312 1.488281 -3.289062 1.375 -2.9375 L 4.640625 -2.9375 C 4.523438 -3.289062 4.316406 -3.570312 4.015625 -3.78125 C 3.722656 -4 3.390625 -4.109375 3.015625 -4.109375 Z M 3.015625 -4.109375 "/></g></g></g><g fill="#000000" fill-opacity="1"><g transform="translate(19.821135, 9.643825)"><g><path d="M 3.0625 -4.046875 L 1.78125 -4.046875 L 1.78125 -1.34375 C 1.78125 -1.125 1.851562 -0.945312 2 -0.8125 C 2.144531 -0.6875 2.3125 -0.625 2.5 -0.625 L 3.046875 -0.625 L 3.046875 -0.0625 C 2.984375 -0.0195312 2.890625 0.015625 2.765625 0.046875 C 2.648438 0.078125 2.535156 0.09375 2.421875 0.09375 C 2.171875 0.09375 1.941406 0.0351562 1.734375 -0.078125 C 1.523438 -0.203125 1.359375 -0.363281 1.234375 -0.5625 C 1.109375 -0.769531 1.046875 -1 1.046875 -1.25 L 1.046875 -4.046875 L 0.25 -4.046875 L 0.25 -4.75 L 1.046875 -4.75 L 1.046875 -6.828125 L 1.78125 -6.828125 L 1.78125 -4.75 L 3.0625 -4.75 Z M 3.0625 -4.046875 "/></g></g></g><g fill="#000000" fill-opacity="1"><g transform="translate(25.755915, 9.643825)"><g><path d="M 6.734375 -4.75 L 7.53125 -4.75 L 5.90625 0 L 5.09375 0 L 3.828125 -3.734375 L 2.5625 0 L 1.75 0 L 0.109375 -4.75 L 0.9375 -4.75 L 2.171875 -0.875 L 3.46875 -4.75 L 4.171875 -4.75 L 5.46875 -0.859375 Z M 6.734375 -4.75 "/></g></g></g><g fill="#000000" fill-opacity="1"><g transform="translate(35.878839, 9.643825)"><g><path d="M 3.015625 0.09375 C 2.554688 0.09375 2.140625 -0.015625 1.765625 -0.234375 C 1.390625 -0.460938 1.085938 -0.765625 0.859375 -1.140625 C 0.640625 -1.515625 0.53125 -1.925781 0.53125 -2.375 C 0.53125 -2.832031 0.640625 -3.25 0.859375 -3.625 C 1.085938 -4 1.390625 -4.296875 1.765625 -4.515625 C 2.140625 -4.742188 2.554688 -4.859375 3.015625 -4.859375 C 3.472656 -4.859375 3.882812 -4.742188 4.25 -4.515625 C 4.625 -4.296875 4.921875 -4 5.140625 -3.625 C 5.367188 -3.25 5.484375 -2.832031 5.484375 -2.375 C 5.484375 -1.925781 5.367188 -1.515625 5.140625 -1.140625 C 4.921875 -0.765625 4.625 -0.460938 4.25 -0.234375 C 3.882812 -0.015625 3.472656 0.09375 3.015625 0.09375 Z M 3.015625 -0.640625 C 3.328125 -0.640625 3.613281 -0.71875 3.875 -0.875 C 4.132812 -1.03125 4.34375 -1.238281 4.5 -1.5 C 4.664062 -1.769531 4.75 -2.0625 4.75 -2.375 C 4.75 -2.695312 4.664062 -2.988281 4.5 -3.25 C 4.34375 -3.519531 4.132812 -3.726562 3.875 -3.875 C 3.613281 -4.03125 3.328125 -4.109375 3.015625 -4.109375 C 2.691406 -4.109375 2.394531 -4.03125 2.125 -3.875 C 1.863281 -3.726562 1.65625 -3.519531 1.5 -3.25 C 1.34375 -2.988281 1.265625 -2.695312 1.265625 -2.375 C 1.265625 -2.0625 1.34375 -1.769531 1.5 -1.5 C 1.65625 -1.238281 1.863281 -1.03125 2.125 -0.875 C 2.394531 -0.71875 2.691406 -0.640625 3.015625 -0.640625 Z M 3.015625 -0.640625 "/></g></g></g><g fill="#000000" fill-opacity="1"><g transform="translate(44.383619, 9.643825)"><g><path d="M 3.1875 -4.859375 C 3.332031 -4.859375 3.457031 -4.84375 3.5625 -4.8125 L 3.5625 -4.0625 C 3.457031 -4.09375 3.332031 -4.109375 3.1875 -4.109375 C 2.90625 -4.109375 2.640625 -4.039062 2.390625 -3.90625 C 2.148438 -3.78125 1.957031 -3.597656 1.8125 -3.359375 C 1.675781 -3.128906 1.609375 -2.867188 1.609375 -2.578125 L 1.609375 0 L 0.875 0 L 0.875 -4.75 L 1.609375 -4.75 L 1.609375 -4.078125 C 1.785156 -4.316406 2.003906 -4.503906 2.265625 -4.640625 C 2.535156 -4.785156 2.84375 -4.859375 3.1875 -4.859375 Z M 3.1875 -4.859375 "/></g></g></g><g clip-path="url(#0af2baea78)"><g fill="#000000" fill-opacity="1"><g transform="translate(50.484965, 9.643825)"><g><path d="M 5.03125 0 L 4.015625 0 L 1.671875 -2.65625 L 1.671875 0 L 0.9375 0 L 0.9375 -8.75 L 1.671875 -8.75 L 1.671875 -2.671875 L 3.84375 -4.75 L 4.828125 -4.75 L 2.609375 -2.640625 Z M 5.03125 0 "/></g></g></g></g><g fill="#000000" fill-opacity="1"><g transform="translate(57.883208, 9.643825)"><g><path d="M 2.046875 0.09375 C 1.660156 0.09375 1.304688 -0.00390625 0.984375 -0.203125 C 0.671875 -0.410156 0.472656 -0.65625 0.390625 -0.9375 L 1.109375 -1.21875 C 1.148438 -1.050781 1.257812 -0.910156 1.4375 -0.796875 C 1.625 -0.679688 1.828125 -0.625 2.046875 -0.625 C 2.253906 -0.625 2.4375 -0.679688 2.59375 -0.796875 C 2.75 -0.910156 2.828125 -1.070312 2.828125 -1.28125 C 2.828125 -1.46875 2.75 -1.613281 2.59375 -1.71875 C 2.445312 -1.820312 2.234375 -1.929688 1.953125 -2.046875 C 1.523438 -2.203125 1.191406 -2.390625 0.953125 -2.609375 C 0.722656 -2.828125 0.609375 -3.125 0.609375 -3.5 C 0.609375 -3.789062 0.671875 -4.035156 0.796875 -4.234375 C 0.929688 -4.429688 1.101562 -4.582031 1.3125 -4.6875 C 1.53125 -4.800781 1.753906 -4.859375 1.984375 -4.859375 C 2.285156 -4.859375 2.570312 -4.78125 2.84375 -4.625 C 3.113281 -4.46875 3.289062 -4.28125 3.375 -4.0625 L 2.734375 -3.734375 C 2.671875 -3.859375 2.578125 -3.953125 2.453125 -4.015625 C 2.328125 -4.078125 2.179688 -4.109375 2.015625 -4.109375 C 1.816406 -4.109375 1.65625 -4.0625 1.53125 -3.96875 C 1.414062 -3.875 1.359375 -3.722656 1.359375 -3.515625 C 1.359375 -3.316406 1.429688 -3.164062 1.578125 -3.0625 C 1.722656 -2.96875 1.941406 -2.851562 2.234375 -2.71875 C 2.441406 -2.644531 2.644531 -2.550781 2.84375 -2.4375 C 3.050781 -2.320312 3.222656 -2.171875 3.359375 -1.984375 C 3.492188 -1.804688 3.5625 -1.570312 3.5625 -1.28125 C 3.5625 -0.875 3.410156 -0.539062 3.109375 -0.28125 C 2.816406 -0.03125 2.460938 0.09375 2.046875 0.09375 Z M 2.046875 0.09375 "/></g></g></g></g></g></g></g></svg>